<?xml version="1.0" encoding="UTF-8"?>
<svg version="1.1" xmlns="http://www.w3.org/2000/svg" width="16" height="16">
<path d="M0 0 C5.28 0 10.56 0 16 0 C16 5.28 16 10.56 16 16 C10.72 16 5.44 16 0 16 C0 10.72 0 5.44 0 0 Z " fill="#77B0C0" transform="translate(0,0)"/>
<path d="M0 0 C5.28 0 10.56 0 16 0 C16 5.28 16 10.56 16 16 C10.72 16 5.44 16 0 16 C0 14.02 0 12.04 0 10 C0.99 11.485 0.99 11.485 2 13 C4.88595946 13.58481121 4.88595946 13.58481121 8.125 13.6875 C9.22070312 13.75324219 10.31640625 13.81898437 11.4453125 13.88671875 C12.28835938 13.92410156 13.13140625 13.96148437 14 14 C14.33 10.7 14.66 7.4 15 4 C12.69 4 10.38 4 8 4 C8 3.01 8 2.02 8 1 C3.58477891 2.26974972 3.58477891 2.26974972 0 5 C0 3.35 0 1.7 0 0 Z " fill="#39A3C0" transform="translate(0,0)"/>
<path d="M0 0 C0.33 0.66 0.66 1.32 1 2 C5.29 2 9.58 2 14 2 C13.67 3.98 13.34 5.96 13 8 C11.02090602 8.02686553 9.04171029 8.04633375 7.0625 8.0625 C5.96035156 8.07410156 4.85820312 8.08570313 3.72265625 8.09765625 C1 8 1 8 0 7 C-0.04092937 4.66702567 -0.04241723 2.33294775 0 0 Z " fill="#ADDEEC" transform="translate(1,6)"/>
<path d="M0 0 C1.125 3.75 1.125 3.75 0 6 C-3.96 6 -7.92 6 -12 6 C-12 5.34 -12 4.68 -12 4 C-9.03 4.495 -9.03 4.495 -6 5 C-6 4.01 -6 3.02 -6 2 C-4.35 2 -2.7 2 -1 2 C-0.67 1.34 -0.34 0.68 0 0 Z " fill="#CCEBF3" transform="translate(14,8)"/>
<path d="M0 0 C0.99 1.485 0.99 1.485 2 3 C4.6556728 3.58348752 4.6556728 3.58348752 7.625 3.6875 C8.62789062 3.75324219 9.63078125 3.81898437 10.6640625 3.88671875 C11.43492188 3.92410156 12.20578125 3.96148437 13 4 C12.67 4.66 12.34 5.32 12 6 C8.04 6 4.08 6 0 6 C0 4.02 0 2.04 0 0 Z " fill="#44ABC7" transform="translate(0,10)"/>
<path d="M0 0 C1.65 0 3.3 0 5 0 C5 0.99 5 1.98 5 3 C5.66 3.33 6.32 3.66 7 4 C6.01 4.66 5.02 5.32 4 6 C4 5.01 4 4.02 4 3 C2.35 3 0.7 3 -1 3 C-0.67 2.01 -0.34 1.02 0 0 Z " fill="#C2E1EA" transform="translate(3,1)"/>
</svg>
